<svg width="24" height="24" viewBox="0 0 24 24" fill="none" xmlns="http://www.w3.org/2000/svg">
<path d="M7.75 4.63733C9.45169 3.65486 10.3025 3.16362 11.2178 3.01865C11.736 2.93658 12.264 2.93658 12.7822 3.01865C13.6975 3.16362 14.5483 3.65486 16.25 4.63733C17.9517 5.61981 18.8025 6.11104 19.3857 6.83122C19.7159 7.23897 19.9799 7.69615 20.1679 8.18598C20.5 9.05113 20.5 10.0336 20.5 11.9985C20.5 13.9635 20.5 14.946 20.1679 15.8111C19.9799 16.3009 19.7159 16.7581 19.3857 17.1659C18.8025 17.8861 17.9517 18.3773 16.25 19.3598C14.5483 20.3422 13.6975 20.8335 12.7822 20.9784C12.264 21.0605 11.736 21.0605 11.2178 20.9784C10.3025 20.8335 9.45169 20.3422 7.75 19.3598C6.04831 18.3773 5.19746 17.8861 4.61427 17.1659C4.28408 16.7581 4.02013 16.3009 3.8321 15.8111C3.5 14.946 3.5 13.9635 3.5 11.9985C3.5 10.0336 3.5 9.05113 3.8321 8.18598C4.02013 7.69615 4.28408 7.23897 4.61427 6.83122C5.19746 6.11104 6.04831 5.61981 7.75 4.63733Z" stroke="currentColor" stroke-width="1.5"/>
<path d="M15 12C15 13.6569 13.6569 15 12 15C10.3431 15 9 13.6569 9 12C9 10.3431 10.3431 9 12 9C13.6569 9 15 10.3431 15 12Z" stroke="currentColor" stroke-width="1.5"/>
</svg>
